<svg width="14" height="14" viewBox="0 0 14 14" fill="none" xmlns="http://www.w3.org/2000/svg">
<path d="M7.00005 0.317322L0.282715 1.80999L0.333381 2.39332C0.404715 3.17666 1.09271 10.0867 3.29405 11.5547C4.39053 12.3002 5.52836 12.9831 6.70205 13.6L7.00005 13.7487L7.29805 13.6C8.47075 12.9841 9.60768 12.3023 10.7034 11.558C12.9047 10.0867 13.5927 3.17666 13.6667 2.39332L13.72 1.80999L7.00005 0.317322ZM11.842 5.66666H7.66672V1.83132L12.2767 2.85532C12.1807 3.71132 12.034 4.69465 11.842 5.66666ZM6.33338 1.83132V5.66666H2.15805C1.96605 4.69465 1.81938 3.71132 1.72338 2.85532L6.33338 1.83132ZM2.45605 6.99999H6.33338V11.874C5.76472 11.5467 4.97671 11.074 4.03671 10.4453C3.40005 10.0193 2.86205 8.62399 2.45605 6.99999ZM9.96338 10.4453C9.02338 11.072 8.23538 11.5467 7.66672 11.874V6.99999H11.544C11.138 8.62399 10.6 10.0193 9.96338 10.4453Z" fill="#00529C"/>
</svg>
