<svg width="14" height="13" viewBox="0 0 14 13" fill="none" xmlns="http://www.w3.org/2000/svg">
<path d="M10.784 3.92937C10.2247 3.31988 9.51877 2.86363 8.73334 2.60404L10.246 0.333374H3.75401L5.26667 2.60404C4.48124 2.86363 3.7753 3.31988 3.21601 3.92937C0.628673 6.70804 0.98534 12.1507 1.00001 12.3807L1.04601 13H12.954L13 12.3807C13.0147 12.1507 13.3713 6.70804 10.784 3.92937ZM6.69001 2.33337L6.24601 1.66671H7.75401L7.31001 2.33337H6.69001ZM2.31267 11.6667C2.30201 10.238 2.46067 6.69471 4.19401 4.83537C4.54956 4.44948 4.9845 4.14519 5.46889 3.94344C5.95329 3.7417 6.47564 3.64729 7.00001 3.66671C7.52437 3.64729 8.04672 3.7417 8.53112 3.94344C9.01551 4.14519 9.45045 4.44948 9.80601 4.83537C11.5393 6.69471 11.698 10.2354 11.6873 11.6667H2.31267Z" fill="#00529C"/>
<path d="M7.66667 4.33337H6.33333V5.00004H5V8.33337H7.66667V9.00004H5V10.3334H6.33333V11H7.66667V10.3334H9V7.00004H6.33333V6.33337H9V5.00004H7.66667V4.33337Z" fill="#00529C"/>
</svg>
